<svg id="c9c644b2-08ec-4f23-93d0-6b6b4e128f7c" data-name="Layer 1" xmlns="http://www.w3.org/2000/svg" viewBox="0 0 4867.77 4421.13"><title>butterfly-logo-bw</title><path d="M3152.65,4421.13c-31.84-13.56-62.12-30-92.7-46.06-106.6-56-210.88-117-311.74-182.58-53.57-34.82-106.46-71.06-158.76-108q-9,61.08-17.69,122.2-21.37-20.54-42.14-41.66c-168.21-171.42-314.22-365.08-441.13-569.56-28.58,17.54-20.06,63.46-14.61,90.59-26.82-59.48-50.68-120.25-72.53-181.53-44.69-125.33-80.75-254.87-99-386.49-10.74-77.64-15.48-156.62-11.36-234.92,4.41-83.81,14.24-168,47.81-246.15v0a416.79,416.79,0,0,1,37.32-62.92c6,1.47,12.1,2.68,18,4.21,16.18,4.15,32.35,8.62,48.65,12.43h0c5.22,1.83,10.47,3.5,15.73,5.09s10.32,3,15.59,4.53c6.33,1.78,12.89,3.56,18.78,5.34h0l0.37,0.23c6.84,2.22,13.79,4.55,20.64,6.78,15.12,4.93,30.27,9.93,45.4,14.9a1.14,1.14,0,0,0,.26.09l0.19,0.21q16.25,19.15,31.87,38.81a0.47,0.47,0,0,1,.08.08h0v0.05c46.86,59.58,89.82,122.09,127.44,187.46,56.64,98.43,102.47,203.66,142.58,310.15,44.13,117.16,83,236.79,125.72,354.74h0q7.67,20.74,15.44,41.45l0,0.08a2452.36,2452.36,0,0,0,97,228.58c39.58,81.58,85,160.64,134.37,237.11l0,0h0l0.15,0.25c50.72,77.4,164.65,223,164.65,223S2891.91,4108,2844.11,4032.94l0-.06c-41.43-66.06-79.89-134-113.93-203.85-39.67-81.38-74-165.8-105.13-251.14a0,0,0,0,0,0,0c-4.68-13-9.16-26.3-13.88-39-0.05-.14-0.11-0.28-0.15-0.41q-7.63-22-15.07-44c-69.73-207-127.35-421.1-226.63-615.71-22.2-43.53-46.74-86.18-72.93-127.71l0-.2h0s0,0,0,0a0.28,0.28,0,0,1-.06.14,0.32,0.32,0,0,1-.06.08l-0.06,0h0c-21.14-33.45-43.91-65.64-67.61-97.31,4.28,1.71,8.59,3.43,12.87,5.17l0.09,0-0.07-.06c49.23,20.38,97.79,42.59,144.7,67.32,54.35,28.64,107.36,60.78,158.78,94.78q9.12,6,18.18,12.21c39.38,26.86,78.15,54.9,116,83.77,12.91,9.84,25.81,19.84,38.61,29.84q6.41,5,12.82,10.07c23.1,18.21,46.11,36.7,69,55.25,69.32,56.21,138.08,113.29,208.2,168.6l0,0q9,7.09,18.1,14.14c6,4.69,12.27,9.43,18.35,14.08q18.3,14,36.84,27.79h0l-0.33-.08a0.34,0.34,0,0,1,0,.09c16.46,50.19,30.14,103,42.47,155,28.35,119.66,49.14,241.68,68.61,363.28l0.48,3s0,0.09,0,.15q10.1,63,20.13,126a0,0,0,0,0,0,0l0,0c-33.54-31.4-66.29-63.63-97.92-96.87q-5.28-5.55-10.49-11.17l-5.22-5.62c-3.46-3.75-6.92-7.53-10.36-11.3q-2.58-2.83-5.16-5.69-5.13-5.7-10.24-11.44-7.65-8.6-15.2-17.33c-3.35-3.87-6.72-7.58-10-11.48-1.66-2-3.3-4-5-5.69h0c-5.56-2.72-11.28-4.28-16.93-6.35,0.14,0.17.31,0.23,0.45,0.39a2438.05,2438.05,0,0,0,187.25,188.72,0.63,0.63,0,0,1,.14.14h0a0.84,0.84,0,0,0-.1,0c1.67,10.31,3.29,20.6,5,30.93q-67.88-29.33-135.51-59.26c-1.37,21.18-2.59,42.44-3.34,63.55-1.21,34.16-1.2,68.55-.31,102.87,0,0,0,0,0,0,2.28,62.36,7.95,124.64,18.75,185.69a1223.34,1223.34,0,0,0,33.45,140.76C3138.24,4377,3146.25,4398.9,3152.65,4421.13Z" fill="#1a1a1a"/><path d="M3279.58,3131.43A2076.45,2076.45,0,0,0,3152,2919.15c-0.62-.9-1.24-1.8-1.87-2.69l-0.09-.11,0.1-.09c27-23,69.23-6.4,96.27,8.2-16.28-16.09-33-31.77-49.89-47.08a2292.53,2292.53,0,0,0-207.28-167c-3.75-2.67-7.53-5.41-11.27-8.23l-0.32-.24h0a0.94,0.94,0,0,1-.46-0.08h0c-18.49-12.51-36.9-25.26-55.53-37.45-67.53-44.2-138-84.51-211.26-118.5-11.79-5.47-23.79-10.7-35.8-15.75l-0.07,0s0,0,0,0c-52.41-21.73-106-40.38-160.72-54-86.4-21.49-175.79-33.22-265-26.54-2.3.17-4.53-.08-6.91,0.61h0c-12,1.3-24,2.71-35.87,4.66-4.73.78-9.46,1.64-14.18,2.57-5.45,1.07-10.91,2.25-16.3,3.53s-10.66,2.64-15.93,4.1q-9.21,2.55-18.25,5.54l-0.3.1c-7.41,2.49-14.76,5.17-22,8.1a315,315,0,0,0-30.19,14.13,275.31,275.31,0,0,0-24.49,14.78l0,0,0,0q-2.39,1.59-4.71,3.26l-0.1.08c-1.81,1.29-3.64,2.59-5.38,3.93l-0.1.09h0q-5.49,4.15-10.76,8.59l4.71,2.74s0,0.22,0,.22c14.59,8.45,29.19,16.9,43.27,26.2h0a1.43,1.43,0,0,1,.54.12s0,0,.05,0h0a2.53,2.53,0,0,1,.53.56c4.53,2.89,9.07,6.11,13.64,8.9h0q6.94,4.2,13.88,8.42h0l24.34,7.62c0.15,0,.32,0,0.46.08q16.06,5.11,32.12,10.25,10.06,3.33,20.06,6.76l10,3.48c2.56,0.89,5.11,1.78,7.65,2.7l2,0.7,0.29,0.09,0.14,0.05,1.22,0.44c0.13,0,.25.08,0.38,0.13,2.76,0.94,5.56,2,8.33,3q19.9,7.33,39.67,15c6.42,2.5,12.83,5.08,19.22,7.68l0.25,0.09,0.43,0.18c3.22,1.31,6.4,2.82,9.61,4.15s6.18,2.48,9.22,4.06h0a2.52,2.52,0,0,1,.57,0l0.58,0.25,0,0c3.06,1.28,6.14,2.49,9.16,3.79,1.61,0.7,3.27,1.38,4.88,2.07,0.17,0.07.34,0.11,0.5,0.19s0.49,0.2.73,0.32c1.76,0.76,3.52,1.52,5.27,2.28l3.26,1.42c0.81,0.36,1.63.72,2.43,1.09l0.32,0.13c0.06,0,.24.07,0.3,0.09a15.12,15.12,0,0,0,2.1.88h0c51.91,31,106,57.54,160.95,82.65l0-.16c1.57,0.91,3,2.49,4.63,2.79l0.1,0a0.78,0.78,0,0,0,.22,0h0a1,1,0,0,1,.72.52,0.89,0.89,0,0,1,.07.24c0,0.16.06,0.34,0.1,0.48h0c1.87,0.34,3.57,1.89,5.32,2.93a0.37,0.37,0,0,0,.15,0c1.46,0.88,2.94,1.7,4.39,2.58a0.72,0.72,0,0,1,.14.06c1.6,1,3.22,1.92,4.83,2.9s3.23,2,4.82,2.95c0.84,0.51,1.7,1,2.52,1.54,2.19,1.37,4.46,2.75,6.67,4.12l1.05,0.65,4.22,2.63c2.93,1.83,5.85,3.68,8.76,5.53s5.81,3.72,8.72,5.57c1.77,1.13,3.55,2.3,5.31,3.43,0.51,0.33,1,.67,1.51,1l0.55,0.35,0.89,0.57,1.51,1c2.52,1.62,5.07,3.3,7.58,5l8.63,5.73c2.88,1.92,5.75,3.87,8.6,5.79s5.71,3.86,8.57,5.82,5.71,3.92,8.54,5.88c5.67,3.92,11.37,7.9,17,11.9l8.46,6c2.82,2,5.65,4,8.45,6.06s5.62,4.05,8.42,6.1l8.39,6.15c2.79,2,5.6,4.1,8.39,6.18l8.54,6.37c2.73,2,5.45,4.09,8.15,6.13s5.54,4.17,8.31,6.29c48.83,37.34,96.64,76.11,143.67,115.6q6.9,5.8,13.8,11.63,16.34,13.8,32.63,27.69,20.63,17.59,41.23,35.27l13.17,11.3q16.24,13.9,32.49,27.85t32.59,27.86l11.44,9.73q10.65,9,21.35,18.07,13.23,11.15,26.58,22.16l0.09-.07c0.06,0,.13-0.05.2,0h0c84.55,69.62,171.21,137.21,262.89,196.46,31.28,20.22,63.36,39.55,95.83,58.08C3374.36,3326,3329.7,3227.06,3279.58,3131.43ZM2219.51,2641.71l-0.12,0a0.1,0.1,0,0,1,0,0h0.06l0.22,0Zm22,17.13h0s0,0,0,0h0ZM3535.38,4094.46a1275.52,1275.52,0,0,1-67.12-131.29c-38.64-87.46-67.22-179.75-88.77-273.26q-1.33-5.77-2.6-11.56c-0.66-3-1.32-6-2-9-4-18.57-7.73-37.27-11.34-56q70.94,9.23,142,17.63c-25.89-60.25-51.54-120.6-77.48-180.83q-33.35-16.26-66.28-33.32h0a4.64,4.64,0,0,1-.41-0.49c-4.62-2.29-9.31-4.8-13.91-7.25-44.89-23.89-88.76-50.31-131.43-77.91-46.07-29.8-91.08-61.73-135.29-94.54l0,0-2.17-1.62-0.14-.1c-8.14-6.11-16.32-12.24-24.41-18.42-15.47-11.81-30.87-23.81-46.22-35.82,0,0,0,0,0,0-4-3.18-8.11-6.41-12.14-9.59l-3.56-2.82c-4.18-3.33-8.41-6.66-12.59-10l-8.56-6.82-4.22-3.39-13.23-10.62q-9-7.22-18-14.51l-4.07-3.31c-9.44-7.7-19-15.42-28.45-23.14l-11.89-9.7-3.54-2.89-10.5-8.58-12.94-10.57-12.92-10.57-6.46-5.28q-9.66-7.93-19.37-15.82-12.91-10.52-25.81-21c-22.88-18.54-45.88-37-69-55.25q-6.4-5-12.82-10.07c-12.8-10-25.7-20-38.61-29.84-37.85-28.87-76.64-57-116-83.77-3-2.05-6-4.09-9.07-6.13l-6.74-4.51-2.37-1.56c-2.81-1.84-5.66-3.74-8.48-5.61l-3.62-2.37c-1.42-.92-2.85-1.87-4.28-2.79l-1-.67-4.12-2.67-7.63-4.91-7.94-5.07-0.14-.08c-1.78-1.16-3.65-2.31-5.47-3.45L2497,2790l-3-1.85-4.93-3.06-4.38-2.71-8.21-5c-6.08-3.7-12.2-7.33-18.28-10.94l-2.61-1.55-1.65-1-6.64-3.88-0.89-.52c-2.19-1.28-4.41-2.55-6.62-3.83l-1.25-.72-3.11-1.78c-2.72-1.55-5.44-3.1-8.16-4.63l-2.48-1.4-4.17-2.33-4.1-2.28q-3.79-2.1-7.57-4.17c-1.59-.88-3.19-1.76-4.8-2.61-0.16-.09-0.35,0-0.51-0.1a13.41,13.41,0,0,0-3.51-1.74h0a32.55,32.55,0,0,0-5.43-3.09c-2.84-1.52-5.69-3.13-8.54-4.64-5.89-3.12-11.84-6.23-17.78-9.26l-3.78-2-3.28-1.66-3.29-1.65-0.16-.08-0.07,0-0.41-.22-0.79-.39-2.28-1.13-0.22-.11c-0.34-.19-0.7-0.36-1-0.52-2.31-1.09-4.68-2.28-7-3.43l-0.78-.4c-0.5-.25-1-0.5-1.48-0.73l-2.28-1.12h0l-4.43-2.14-4.05-2-0.49-.24,0,0-1.9-.9-0.13-.07q-3.47-1.66-7-3.31l-4.95-2.32-2.9-1.36-1.63-.77c-2-.92-4-1.87-6.05-2.79l-2.53-1.15-0.59-.27-0.54-.26-1.87-.84c-2.2-1-4.44-2-6.65-3l-0.62-.28-0.37-.17c-2.24-1-4.52-2-6.77-3a1.82,1.82,0,0,0-.3-0.13q-4.81-2.14-9.62-4.24c-3-1.32-6.06-2.63-9.07-3.92l-10-4.24-1.61-.68-4.08-1.73-4.91-2-6.88-2.84,0.07,0.05h0c66.84,54.35,129.93,113.26,187.11,177.15,149,166.51,261,363.85,381.75,551.79,66.15,103,136.36,203.84,214.36,298.06,5.2,6.28,10.25,13.65,15.81,18.71h0c0.84,0.23,1.45,1.69,2.16,2.55h0l0.47,0.55c1.49,1.75,3,3.54,4.5,5.31q5,5.86,10,11.67,7.55,8.73,15.2,17.33,5.1,5.73,10.24,11.44,2.57,2.85,5.16,5.69c3.44,3.77,6.9,7.56,10.36,11.3l5.22,5.62q5.23,5.61,10.49,11.17c31.63,33.24,64.38,65.47,97.92,96.87l0,0a0,0,0,0,0,0,0c55.22,51,172.48,144.73,172.48,144.73s-116.31-89.68-171.36-138.44l-0.08-.07h0l0,0,0,0s0-.07,0-0.08q-40.13-36.1-78.66-73.85c-3.95-3.87-7.88-7.8-11.8-11.71-2-1.95-3.92-3.92-5.87-5.89s-3.83-3.87-5.72-5.8l-4-4.06-2-2.05c-26.88-27.78-53.18-56.79-78.83-85.16l-0.26-.29-0.17-.19-0.23-.26a0.37,0.37,0,0,1-.08-0.11c-0.86-1-1.74-2-2.62-3,0-.06-0.11-0.1-0.17-0.16-12.41-14.21-24.75-28.74-36.78-43.28-145-175.3-260.49-374.13-391.25-560.09-66.82-95-139.32-187-220.77-269.57-25-25.39-51.11-50-77.85-73.84l0-.2h0s0,0,0,0a0.81,0.81,0,0,1-.12.12,0.08,0.08,0,0,0-.06,0h0q-50.61-44.15-104.38-84.28h0s0,0,0,0a0.2,0.2,0,0,0-.1,0c-25.32-18.61-51-36.64-77.31-53.76h0a1.07,1.07,0,0,1-.27-0.22l-20.53-6.7-0.06-.15-0.07-.2q-3.65-1.06-7.29-2.08l-7.15-2-4.56-1.29c-2.2-.62-4.41-1.23-6.63-1.86l-1.29-.37-0.78-.22c-0.91-.26-1.82-0.47-2.72-0.74a3.69,3.69,0,0,0-.44-0.09h-0.06a6.41,6.41,0,0,1-.81-0.3l-0.26-.09-1.4-.44-1.42-.42c-1.32-.4-2.64-0.8-3.94-1.21l-4.06-1.29-3.8-1.25-3.92-1.34h0l-3.05-.73-2.67-.63-2.66-.65-4.76-1.17-0.49-.12-0.84-.22c-1.63-.43-3.29-0.84-4.95-1.27l-4.93-1.28c-2-.52-4-1-6-1.54-0.92-.24-1.85-0.52-2.77-0.78l0,0c-0.32-.08-0.63-0.21-0.95-0.3-0.07,0-.15-0.08-0.22-0.1l-2.15-.36c-0.53-.09-1-0.17-1.57-0.28a8.51,8.51,0,0,1-1-.11c-0.39-.1-0.8-0.17-1.19-0.24h0a3.83,3.83,0,0,1-.56-0.36c-0.17-.08-0.33-0.22-0.5-0.31l-0.07-.07,0-.24,0-.22h0a1.27,1.27,0,0,1-.51-0.06s-0.05.08-.07,0.06-0.29-.08-0.44-0.18h-0.06c-1.14-.19-2.36-0.35-3.63-0.61h0l-0.54-.11c-0.31-.06-0.64-0.09-1-0.14h-0.08l-1.27-.21h0a1.77,1.77,0,0,1-.06-0.24h0l-0.13.19c-30.19,47.68-43.95,98.33-47.93,154.32a0.71,0.71,0,0,0,.11.16,0.06,0.06,0,0,1,0,0c-2.67,76,11.21,150.39,28.62,223.66,19,80,46.3,158.51,78.48,234.23,54.87,129.08,124.9,252.25,201.86,369.7,37.2,56.78,76,112.7,117.49,166.66-12.65-26.17-33.08-70.78-10.83-96.82,145.55,145.81,302.38,280.11,472.88,396a0.1,0.1,0,0,0,0,0,0.82,0.82,0,0,1,.07-0.18l0.05-.23h0l0,0.26a0.6,0.6,0,0,1,.14,0c3,2,5.94,3.81,8.89,5.81l0.57,0.37h0s0,0.23,0,.23,0,0.16,0,.16c26.53,17.65,53.33,35,80.39,51.68,16.48,10.13,33.22,20,50.06,29.66q-7.41-64.28-14.83-128.56c39.69,14.89,79.51,29.34,119.63,43.05l0,0c18.71,6.62,37.57,12.69,56.46,18.74a3309.39,3309.39,0,0,0,337.7,89.25c32.66,6.77,65.06,13.94,98.25,17.74C3560.22,4134.05,3547.13,4114.41,3535.38,4094.46ZM2708.89,2910l0,0a0,0,0,0,0,0,0l1,0.72,0.34,0.26Zm713.23,526c-0.11-.24-0.2-0.5-0.32-0.74-49.87-26-98.24-54.85-145.23-85.39-71.76-46.62-140.69-98.21-208.2-151.24h0a0.3,0.3,0,0,0,0,0q-38.13-30.23-75.83-61a0,0,0,0,0,0,0q-43.59-35.6-87-71.4l-12.38-10.17q-16.49-13.52-33-27-8.61-7-17.23-14t-17.25-13.95q-8.63-7-17.26-13.87a0.06,0.06,0,0,0,0,0q-8.63-6.92-17.29-13.78-25.56-20.25-51.46-40.17l0,0-3.81-2.93-3.81-2.92-7.66-5.82c-2.55-1.93-5.09-3.85-7.66-5.78l-6-4.52c2.91,2.34,5.92,4.69,8.74,7h0s-0.08,0-.08,0c3.43,2.8,6.79,5.57,10.21,8.37,5.18,4.23,10.32,8.47,15.48,12.72,1.71,1.41,3.45,2.68,5.15,4.09,3.43,2.84,6.91,5.44,10.34,8.4h0c6.85,5.93,13.71,11.59,20.58,17.34,3.43,2.88,6.86,5.84,10.29,8.73q41.3,34.76,82.34,69.89,16.23,13.84,32.46,27.69t32.59,27.68q16.36,13.85,32.78,27.63c6.4,5.37,12.84,10.83,19.29,16.19l1.61,1.34,0.86,0.7c1.59,1.33,3.2,2.64,4.81,4a0.29,0.29,0,0,1,.06.12,0.49,0.49,0,0,0,.13.29h0c1.94,1.53,3.89,3.06,5.82,4.61l5,4c2.63,2.09,5.28,4.2,7.89,6.33l1.3,1.05c3,2.48,6.14,5,9.22,7.46l5.86,4.74,2.34,1.91c1.15,0.94,2.34,1.89,3.52,2.85l5.87,4.77,7,5.71,7.06,5.68h0q3.53,2.83,7.08,5.65c1.39,1.1,2.78,2.21,4.17,3.31l1.33,1,1.27,1,0.06,0,0.06,0,0,0a0,0,0,0,0,0,0,0.07,0.07,0,0,1,0,.07h0l0.15,0q4.94,3.88,9.89,7.73a0.14,0.14,0,0,0,.06,0l1.43,1.12c57.22,44.2,115.93,86.71,176.57,125.76,30.54,19.67,61.64,38.68,93.52,56.36l2.44,1.33,0.09,0h0q33.52,18.79,67.69,36.31Q3423.56,3439.22,3422.11,3436Z" fill="#1a1a1a"/><path d="M3904.92,3608.43c-31.34,9-63.22,14.35-95.25,20.11a2571,2571,0,0,1-335.83,38c-32.86,1.52-66,2.44-98.91,2.83-18.54.22-37.19,0.26-55.74,0.18-8.41,0-16.85-.14-25.27-0.25q26.51,61.39,53,122.79c-18.36-3.45-36.76-7.08-54.86-11.21-33.46-7.64-66.93-16.85-100.21-26l-0.07,0c-20.09-5.59-40.07-11.38-59.91-17.8h0c-29.63-9.41-59.27-19.17-88.51-29.28l-0.53-.18h0c-0.69-.34-1.39-0.67-2.09-1-4.65-2-9.45-3.11-14.15-4.81l-0.12,0-0.13,0s0-.1,0-0.1-0.3-.16-0.44-0.22c-15.16-5.56-30.45-11.5-45.73-17.11h0c-5.77-2.77-11.63-4.73-17.43-7-0.06,0-.1-0.2-0.15-0.23-112.16-44.83-221.06-96.75-327.2-154.38-12,33.27,20,70.55,40.69,93.46q-25.72-18.79-51-38.18h0q-11.05-8.53-22-17.2l0,0q-26.37-21-52.27-42.56c-0.07-.05-0.09-0.38-0.16-0.44-7.8-6.52-15.55-13-23.31-19.63h0c-4.08-3.36-8.13-6.92-12.17-10.39-109.9-94.34-214.3-195.94-307-306.83-55.18-66-106.76-135.86-151.65-209.3-45.72-74.8-89.54-152.38-110.45-238.56,0,0-.22-0.07-0.23-0.09-6.48-32.17-9.18-63.11-6.92-95.85v0a320.19,320.19,0,0,1,17.29-67.7c6.7,1.54,13.49,3.16,20.14,4.79,3,0.72,5.91,1.51,8.89,2.18s6,1.73,9.06,2.24l-0.47-.08,0-.22c2.37,0.57,4.56,1,6.59,1.32h0.06a13.36,13.36,0,0,0,5.9,2h0.08l6.09,1h0c1.87,1.32,4,1.29,6,1.82,8.09,2.13,16.17,4.43,24.31,6.3h0c5.22,1.83,10.47,3.5,15.73,5.09,2.67,0.81,5.28,1.57,7.89,2.33s5.1,1.47,7.69,2.2c4,1.11,8,2.22,11.92,3.34,2.34,0.66,4.64,1.33,6.85,2h0l0.37,0.23,0.13,0c6.8,2.2,13.71,4.52,20.51,6.74,15.12,4.93,30.27,9.93,45.41,14.9a1,1,0,0,0,.26.09l0.13,0.18,0.06,0a0.87,0.87,0,0,0,.24.19h0q34.4,12.27,68.35,25.66s0.09-.17.13-0.16a0.86,0.86,0,0,1,.08-0.1h0c4.27,1.79,8.56,3.52,12.84,5.26a0.38,0.38,0,0,0,0,.13h0c49.18,20.42,97.73,42.6,144.61,67.3,44.11,23.24,87.41,48.88,129.61,75.75,9.78,6.22,19.51,12.61,29.17,19,6.07,4,12.16,8.11,18.18,12.21,39.37,26.82,78.16,54.9,116,83.78,12.9,9.84,25.81,19.84,38.61,29.84q6.41,5,12.82,10.07c23.1,18.21,46.1,36.71,69,55.25q12.91,10.46,25.81,21,19.39,15.81,38.75,31.67c47.63,39,95.32,77.84,143.64,115.94l0,0q9,7.09,18.1,14.14t18.18,14c3.31,2.54,6.63,5.11,9.95,7.68,8.09,6.26,16.2,12.53,24.41,18.42l0.14,0.1c0.71,0.52,1.46,1,2.18,1.55h0c44.32,32.66,89.27,64.68,135.34,94.5,42.68,27.62,86.52,54.15,131.41,78.05,4.6,2.45,9.29,5,13.91,7.25a4.64,4.64,0,0,0,.41.49h0c22,11.35,44.1,22.61,66.29,33.32,86.22,41.6,267.82,104.71,267.82,104.71s-184-68-271-112.31c-22.73-11.58-45.3-23.87-67.68-36.35,0,0,0-.11,0-0.11h0a0.23,0.23,0,0,1-.08,0l-2.43-1.38c-31.62-18-63-36.78-93.5-56.41-60.62-39-119.5-81.46-176.59-125.72-3.81-3-7.63-5.67-11.38-8.88h0c-9.22-7.81-18.93-15.13-28.3-22.67-15.53-12.5-31.09-25.22-46.76-37.67h0a0.47,0.47,0,0,1-.14-0.29,0.29,0.29,0,0,0-.06-0.12c-1.6-1.32-3.22-2.63-4.81-4l-0.86-.7c-1.8-1.5-3.63-3-5.44-4.51l-4.61-3.83-10.86-9.08q-16.42-13.76-32.77-27.67T2906,3075.62l-16.24-13.86-16.22-13.83q-41.09-35-82.34-69.87-5.13-4.32-10.3-8.64-10.29-8.62-20.61-17.19-15.44-12.83-31-25.54L2719,2918.3l-0.07,0q-5.18-4.2-10.37-8.39l0,0a0.11,0.11,0,0,0-.06,0l-0.07-.06c-85.34-68.52-173.4-133.39-267.52-189.22-1.57-.93-3.17-1.83-4.75-2.74,0,0,0,0,0,0s0,0,0,0a1,1,0,0,1-.12.23l-2.25-1.3q-75.13-42.79-154.33-78.44l0,0c-1.38-.63-2.77-1.23-4.16-1.85h0c-6.41-3.2-12.9-6-19.4-8.74-31.23-13.27-62.9-25.82-94.78-37.38l-5.61-2c-12.62-4.49-25.35-8.88-38.11-13l-0.14-.1a0.45,0.45,0,0,0-.13-0.08c-2-.66-4-1.44-6-2.08-16.8-5.32-33.78-10.21-50.48-15.9h0c-4.85-1.81-9.84-2.57-14.75-4-0.1,0-.21,0-0.31,0q-20.51-5.71-41.1-11c-10.12-2.62-20.28-5.12-30.44-7.58a224.82,224.82,0,0,1,14.77-20.93l0,0c2.57-3.25,5.22-6.39,8-9.51h0q4-4.59,8.32-9l0,0,0,0c6.39-6.55,13.18-12.83,20.26-18.8,3.16-2.66,6.38-5.34,9.67-7.84a438.14,438.14,0,0,1,37.93-25.68c5.47-3.31,11.22-6.53,16.92-9.51a581.56,581.56,0,0,1,54.86-25c1.21-.48,2.45-0.94,3.68-1.42h0c2.54-1,5.11-1.93,7.66-2.87l0,0c9.22-3.39,18.56-6.56,27.93-9.55,4-1.27,8-2.53,12.05-3.7,68.17-19.9,138.81-30.63,209.41-35.61,149.12-10.53,299.2,9.81,444.47,45,48.62,11.77,97.14,25.36,145,40.33,7.14,2.23,14.3,4.53,21.42,6.87q78.95,25.94,155.95,57.43c20.41,8.37,40.81,17,60.74,26.56-30.85-4.2-74.63-3.87-92.34,26.83q64.19,47.45,123.74,100.45c6.36,5.65,12.69,11.39,19,17.17,14.45,13.3,28.82,26.84,42.88,40.5,43.23,42,85.19,85.91,125.87,130.47,18.73,20.51,37.25,41.35,55.69,62.2a1.56,1.56,0,0,0,.14.15c0.19,0.21.37,0.31,0.56,0.51,2.34,2.61,4.7,5,7,7.93h0q12,13.67,24,27.41c49.12,56.59,97.55,113.77,146.23,170.74q-67.73,19.09-135.84,36.74c10.38,19.72,21,39.39,31.92,58.75,49.36,87.14,105.23,171.1,170.26,246.78a1217.28,1217.28,0,0,0,101.29,104.9C3870.19,3578,3888.19,3592.67,3904.92,3608.43Z" fill="#1a1a1a"/><path d="M2375.42,2056.53q62.85-8.69,126-14.84c3.23-.31,6.46-0.61,9.69-0.9h0q88.37-7.7,177-9.68c7.5-.14,15-0.25,22.48-0.3,27.83-.17,55.76.17,83.64,0.84,259.59,8,514.51,56.82,770.88,93.92q6,0.87,12,1.7c15.55,2.17,31.13,4.32,46.68,6.35,130,17,261.52,28.16,392.34,26a1947.48,1947.48,0,0,0,208.73-15.11c25-3.33,50.13-7,74.93-11.2,105.55-18,311.39-80.11,311.39-80.11s-213.26,69-323,89.42c-24.55,4.57-49.37,8.59-74.17,12.32a1994.67,1994.67,0,0,1-258,20.1c-122.38,1.34-245.24-9-367.21-23q-19.8-2.28-39.6-4.75c-148.07-18.32-295.88-40.92-444-56.46-133-13.95-266.9-20.8-400.88-17.66-18.14.52-36.32,1.14-54.38,2-20.86,1-41.83,2.38-62.74,3.88q-68,5.27-135.61,13.71-56,7.27-111.73,16.39-8.64,1.42-17.29,2.92-13.75,14.68-27.38,29.48c-14.56,15.77-29.1,31.57-43.14,47.84l-0.11.66a1.52,1.52,0,0,1-.63.65,0.23,0.23,0,0,0,0,.15,3.67,3.67,0,0,0-.77.52h0c-23.37,24.29-44.69,50.19-66.33,76-0.08.1-.1,0.23-0.19,0.33s-0.52-.06-0.52-0.05c-4.07,4.83-8.13,9.69-12.17,14.5l-5.2,6.22c-0.61.75-1.25,1.51-1.87,2.27-1.69,2-3.35,4-5,6l-6,7.26q-6,7.26-11.93,14.55-3,3.65-5.92,7.29a0.22,0.22,0,0,0-.1.09q-8.47,10.45-16.81,20.91l0.06,0.08c12.75,15.88,26.08,31,40.12,45.71a1.05,1.05,0,0,0,.1.12,833.86,833.86,0,0,0,68.57,61.74v0c32.8,26.62,67.21,50.8,102.34,74.21a0.1,0.1,0,0,0,0,0q25.34,16.7,51,32.93a0.09,0.09,0,0,1,0,0c12.14,7.61,24.32,15.26,36.49,22.71,46.88,28.69,95.42,55.2,144.18,81h0a1.84,1.84,0,0,1,.54.09h0a1.37,1.37,0,0,1,.46.08h0c53.21,26.69,107.16,52.15,161.77,75.38,26.06,11.09,52.52,21.62,79,31.83h0c78.49,30.72,158.35,57.3,239.24,80.93l0,0.19q109.06,31.28,220,55c77.24,16.4,155.2,30.4,233.73,40.34h0c8.34,0.64,16.31,1.94,24.46,2.82-9.15-3.43-19.79-8-30.9-13.09l-0.17-.07c-30.19-14.68-66.31-38.09-70.31-74.54,7.55-.31,15.16-0.78,22.7-1.15,294.34-14.42,587.76-72.47,857.91-190.32q33.5-14.61,66.49-30.84-64-55.95-128.54-111.36C4304.45,2481.82,4369.85,2431,4433,2378c121.46-102,235.75-213.09,343.13-330.19,31.46-34.3,63.37-68.08,91.63-105.16-27-5.36-54.7-7.94-81.5-12.58-56.86-9.84-114.12-24.62-169.23-42.76-41.1-13.53-81.71-29.59-121.62-47-30.93-13.83-61.56-28.45-91.49-44-38.41-20-76.46-41.61-113.46-64.14-23.05-14-46-28.65-68.69-43.4q64.77-76.32,128.3-153.67-18.12-5.63-36.22-11.31a2143.41,2143.41,0,0,1-302.5,149.39q8.08-9.9,16.07-19.89a2091.65,2091.65,0,0,0,279.28-131.72c-49.21-15.38-98.45-30.77-147.75-45.75q-26.16-8-52.4-15.75c-21.33,14.61-42.88,29-64.61,42.86-21.29,13.56-43,26.77-64.81,39.65q-2.78,1.64-5.58,3.24,8-13.4,15.74-26.9h0q20-11.46,39.9-23.2c9.33-5.53,18.63-11.2,27.84-16.92q18.34-11.4,36.52-23.16-29.54-8.66-59.15-17.09c-102-28.72-205-54.76-308.86-74A2111.06,2111.06,0,0,0,3483.4,1334c-157.5,98.83-321.31,187-483.12,278.32q-13.35,7.53-26.69,15.13c-128.71,73.41-255.84,150.11-377.66,234-26.14,18-52.1,36.45-77.85,55.1Q2447.51,1987.32,2375.42,2056.53Z" fill="#1a1a1a"/><path d="M4473.1,1549.22q-38.92,86.5-81,171.76,83.12,16.16,166.16,32.76-23.53,34.21-48.4,67.43-7.16,9.61-14.46,19.13-33.75,44.11-69.16,86.95-5.13,6.21-10.33,12.37c-60.35,71.33-124,139.86-191.1,204.92q-5.39,5.23-10.84,10.42a2703.72,2703.72,0,0,1-438.24,338.71c25,44.6,91.06,40.15,133.82,33.94-84.45,36.67-171.59,66.62-259.71,92.2-63.21,18.35-127.58,34.34-192,47.49a2293.35,2293.35,0,0,1-385.17,44.81q-4.54.14-9.07,0.24c-87.78,1.93-176-1-263.15-9.83-36.08-3.64-72.37-8.33-108.24-13.91-43.32-6.74-86.9-14.28-129.78-23.18-140.39-29.15-291-74.7-394.85-177.39a447.43,447.43,0,0,1-48-56.12c-0.83-1.15-1.62-2.33-2.42-3.49-1-1.49-2.06-3-3.06-4.5q22.17-15.72,44.48-31.25,12.53-8.71,25.21-17.35l0,0q24.71-16.81,49.58-33.37a0.38,0.38,0,0,1,.14-0.09c43.22-28.59,86.92-56.57,131-83.57q82.25-50.34,167.13-96.81h0q67.75-36.82,136.85-71,17.81-8.78,35.78-17.31,44.7-21.25,89.85-41.5c108-48.23,218.52-91.91,329.62-132.86,287-105.8,581.57-200,847.78-353q2.79-1.6,5.58-3.24c21.79-12.88,43.52-26.09,64.81-39.65,21.72-13.84,43.41-28.23,64.61-42.86a2243.63,2243.63,0,0,0,223.1-176.28c73.66-66.08,208.94-211.65,208.94-211.65s-140.4,145.35-216.78,210.84A2172.69,2172.69,0,0,1,4091.6,1455.6c-12.05,7.83-24.3,15.56-36.52,23.16-9.21,5.72-18.51,11.39-27.84,16.92q-19.82,11.76-39.9,23.2h0c-129.16,72.64-264.8,132.47-403.27,184.18-290.94,108.65-592.41,192.34-876.63,319.27q-9.68,4.32-19.35,8.76c-33.84,15.49-67.56,31.46-100.85,47.95-83,41.1-164.61,85.71-244.67,132.71,14.21-16.11,28.51-32.2,42.92-48.06,21.69-23.88,43.83-47.62,66.15-70.94,11.42-11.94,23-23.84,34.55-35.65q7.56-7.72,15.23-15.42c27.31-27.43,55-54.57,83.09-81.13,121.2-114.69,250-221.76,380.49-326.19l8.62-6.88c152.15-121.21,305.73-241.32,450.58-371.57h0c88.87-80.54,174.48-165,252.73-255.39,51.52-59.54,101.62-122.31,145.85-186.36,0.14-.2.29-0.42,0.41-0.61q128.28-30.11,256.45-60.73Q4052,855,4022.92,956.81c27.57,1,55.23,1.84,82.71,2,4.78,0,9.6.06,14.39,0.07a2.21,2.21,0,0,1,.4,0c42.71-.24,85.54-1.48,127.94-4.5,76-5.4,152.39-16.12,226.6-33.3a1319.41,1319.41,0,0,0,174.4-53.14c26.73-10.27,53.16-22.67,80.42-32.38-10.69,48.1-26.15,94.77-40.75,141.75-51.7,166.3-111.56,330.32-180.06,490.25C4497.29,1494.86,4485.29,1522.14,4473.1,1549.22Z" fill="#1a1a1a"/><path d="M4273.63,878.67q-12,38.08-25.26,75.72c-0.71,2-1.42,4-2.14,6-28.76,80.43-60.4,159.92-95.08,237.76-33.5,75.19-70,149.36-108.89,222.13-3.24,6.07-6.54,12.16-9.81,18.19q-1.92,3.53-3.85,7.07-20.25,36.86-41.25,73.3h0q-7.79,13.5-15.74,26.9a3413,3413,0,0,1-244.4,358c39.67,34.52,104.33-.54,141-22.57a2322.1,2322.1,0,0,1-173.11,155.09c-11.44,9.29-23,18.5-34.62,27.67-6.07,4.8-12.17,9.6-18.28,14.33q-32.19,24.89-65.09,48.95-13.83,10.1-27.86,20c-141.45,99.63-292.89,184.87-453.2,249.57l-3.75,1.5c-23.13,9.25-46.69,18.16-70.16,26.53a1873.19,1873.19,0,0,1-299.73,80c-14.84,2.65-29.81,5.17-44.72,7.61-12.72,2.08-25.51,4-38.26,5.87-46.14,6.59-93,12.14-139.13,14.52-20.36,1-41.17,1.13-61.76,1.9h0a1036.21,1036.21,0,0,1-108.8-6.08l-0.22,0c-55.78-7.3-110.53-19.55-161.9-40.62a496,496,0,0,1-86.28-46c-8.06-5.36-16-11.28-23.75-17.3a5.78,5.78,0,0,0,1.16-1.65l0.06-.18h0c3.65-4.55,7.33-9.63,11.13-14.5l0-.06c0.19-.68,1-1.22,1.54-1.84,0,0,.16,0,0.18,0q9.67-12.59,19.49-25.13,6.67-8.54,13.41-17.09,6.09-7.72,12.24-15.39a0.31,0.31,0,0,1,.1-0.07c0.51-.65,1-1.3,1.55-1.94a0.25,0.25,0,0,1,.06-0.06q8.33-10.48,16.81-20.91a0.22,0.22,0,0,1,.1-0.09q2.94-3.65,5.92-7.29,4-4.95,8.1-9.89l3.82-4.66c2-2.41,4-4.83,6-7.26l5-6,1.87-2.27c1.71-2.07,3.46-4.15,5.2-6.22,4-4.82,8.1-9.67,12.17-14.5,0,0,.52.06,0.52,0.05s0.11-.22.19-0.33c21.64-25.82,43-51.72,66.33-76h0a3.65,3.65,0,0,1,.77-0.52,0.23,0.23,0,0,1,0-.15,1.52,1.52,0,0,0,.63-0.65l0.11-.66c14-16.27,28.58-32.07,43.14-47.84,9.09-9.84,18.21-19.7,27.38-29.48q26.2-28,52.83-55.54,12.46-12.9,25.09-25.65,46.39-46.86,94.12-92.35l0.15-.12c2.52-2.41,5.07-4.79,7.62-7.19l0.9-.84q7.36-6.93,14.77-13.82c2.95-2.75,5.92-5.53,8.89-8.29q6-5.53,11.95-11,10.1-9.3,20.31-18.56l0.22-.19c0.94-.87,1.9-1.74,2.87-2.62l2.89-2.6c3.25-2.93,6.52-5.9,9.79-8.85,3.63-3.28,7.27-6.56,10.92-9.82l1.44-1.29c3.57-3.22,7.21-6.44,10.83-9.65l6.68-5.93,2.21-2,6.06-5.37q5.31-4.68,10.63-9.35,6.06-5.33,12.16-10.67a2.7,2.7,0,0,0,.27-0.24q6.08-5.32,12.19-10.61,5.88-5.1,11.8-10.2l0.58-.52c8.25-7.14,16.56-14.27,24.86-21.36,6.88-5.88,13.84-11.75,20.72-17.6,2.14-1.82,4.32-3.67,6.48-5.49,16-13.46,32.11-27,48.23-40.42,4.22-3.51,8.44-7,12.68-10.51s8.45-7,12.7-10.49l12.73-10.46q6.36-5.24,12.77-10.45c3.72-3,7.51-6.09,11.18-9.13l2.94-2.41,1.26-1c3.12-2.57,6.29-5.13,9.42-7.68l1.78-1.43c0.61-.48,1.21-1,1.81-1.48l10-8.11,12.84-10.4q6.43-5.2,12.87-10.37l12.88-10.35,12.89-10.35q8.16-6.54,16.35-13.08c4.11-3.27,8.23-6.57,12.34-9.85l16.85-13.46,18.51-14.78,23.29-18.58c6.34-5.06,12.7-10.18,19-15.18l2.85-2.28c21.8-17.47,43.74-35,65.56-52.49l7.58-6.1c10.09-8.14,20.24-16.31,30.32-24.48l15.15-12.27,6.33-5.16,8.79-7.15c6.27-5.12,12.59-10.27,18.89-15.42q13.19-10.8,26.34-21.68,7.52-6.21,15-12.44,15-12.45,29.95-25c5-4.18,10-8.38,14.92-12.57q14.75-12.48,29.45-25,7.61-6.53,15.23-13.1,14.68-12.66,29.26-25.44v0q5.53-4.82,11-9.66,16.41-14.54,32.73-29.17c1-.9,2-1.81,3.09-2.74l0.25-.22,0.36-.32c3.24-2.88,6.61-5.75,9.55-8.64,0,0-.21,0-0.21-0.06a2.33,2.33,0,0,0,.87-1.13h0c32.9-29.91,65.48-60.28,97.25-91.24,57.93-56.46,114-115.35,166.89-176.56,10-11.57,19.93-23.37,29.79-35,0.27-.32.6-0.63,0.87-0.95a0,0,0,0,1,0,0q8.45-10.19,16.82-20.46c1.37-1.68,2.76-3.38,4.11-5.07s2.76-3.39,4.1-5.08c0.19-.24.39-0.49,0.59-0.72s0.2-.25.29-0.38c1.33-1.64,2.64-3.29,3.95-4.93s2.64-3.28,3.93-4.92l3.71-4.68,2.77-3.5c0.31-.39.63-0.79,0.93-1.18l0.35-.45c0.67-.88,1.39-1.78,2.08-2.66,2.17-2.75,4.32-5.52,6.45-8.24l1.31-1.7c0.42-.54.85-1.09,1.26-1.63,0.25-.33.52-0.66,0.78-1,1.62-2.13,3.29-4.28,4.94-6.42,2.28-2.94,4.54-5.91,6.78-8.85,1.91-2.5,3.83-5,5.71-7.53,0.07-.09.14-0.18,0.21-0.27l0.49-.65,0.55-.74c2.72-3.55,5.41-7.2,8.09-10.77l1.69-2.24,1.07-1.45c2.5-3.4,5-6.81,7.58-10.24q4.34-5.87,8.62-11.77,2.83-3.89,5.65-7.79,3.94-5.45,7.87-10.94c3-4.15,5.94-8.34,8.89-12.52l0.29-.39,0.16-.24C3898.35,586,4057,276.07,4057,276.07s-167.74,313.37-273.44,456.49l-0.24.33c-32,43.51-66.45,86.43-101.64,127.77-34.31,40.31-70.2,79.62-106.89,118a0.13,0.13,0,0,1-.06.09q-65.61,67.94-135,132c-31.83,29.34-64.39,58.19-97.24,86.47q-19.32,16.64-38.93,33-46.26,38.69-93.32,76.48c-59.36,47.68-119.66,94.49-180.08,140.9-172,132.13-346.47,262.24-509.42,405.1A4191.67,4191.67,0,0,0,2200.84,2165q-5.63,6.11-11.22,12.25-20.47,22.48-40.66,45.25c-18.81,21.27-37.52,42.84-55.83,64.51-2.74,3.24-5.5,6.51-8.24,9.77l0,0-5.73,6.82q-9.92,11.85-19.7,23.75-23.43,28.55-46.39,57.55c-7.4-7.83-14.36-15.89-20.81-24.17-1.26-1.62-2.52-3.24-3.74-4.87q-5.44-7.27-10.44-14.72c-3.28-4.88-6.41-9.87-9.39-14.88-3.72-6.26-7.27-12.62-10.58-19.05-2.58-5-5-10.06-7.34-15.15s-4.6-10.46-6.72-15.74c-1.45-3.61-3.06-7.31-4.44-10.93-0.11-.28-0.08-0.56-0.18-0.84-2.65-7.46-5.34-15.11-7.63-22.77h0a529,529,0,0,1-18.59-128.73c-2.19-119,28.81-237.2,68.39-349.61C2054,1557.64,2167.84,1367,2285.4,1183.29q140.41-219.38,295.5-429.48c20.16-27.28,40.56-54.45,61.53-81.15-16.56,37.67-43.84,105-9.73,140.64C2722,732.75,2815.1,656.31,2911,584c197.22-148.71,405.4-283.17,612.08-419q1.85,103.34,1.89,206.7c27.22-9.79,54.42-19.84,81.26-30.37,120.3-47.23,237.63-104.51,346-174.75A1630.81,1630.81,0,0,0,4103,56.35C4125.25,38,4146.65,17.91,4169.6,0c4.24,45.65,3.48,91.35,3.44,137.14-0.16,168-11.17,336-30.66,502.66q-14,119.47-34.16,238.37v0.12c-0.66,13.11-3.48,26.33-6,39.2Q4187.9,897.87,4273.63,878.67Z" fill="#1a1a1a"/><path d="M1836.19,933.91c-27,4.26-44.87,32.43-44.63,58.67,8.87,775.84,21.52,1551.63,33.19,2327.44q6,395.89,11.47,791.79c12.26-795.67,27.44-1591.29,39.92-2387q5.85-373.07,10.77-746.16c0-.3,0-0.59,0-0.88C1886.94,950.34,1863.33,929.63,1836.19,933.91Zm0.57,372.48c-9.07.4-15.1-34.85-16.86-46.93-5.62-38.46-6.82-77.8-6.77-116.34,0-39.43,1.49-79.59,7-119,2-14.3,7-50.16,16.66-51.62,9.05-1.37,16.77,35.21,18.63,46.58,6.34,38.76,7.85,78.59,7.9,117.5,0.05,39.31-1.45,79.5-7.68,118.69C1853.5,1268.49,1846.62,1306,1836.76,1306.39Z" fill="#1a1a1a"/><path d="M1096.74,3897.81c12.25-5.61,23.18-14.51,34-22.19,42.16-29.84,84.14-61.21,125.21-93.06,24.52-19,49-38.15,73.62-57.12q5.42,59.62,10.68,119.25c7.15-8.83,14.09-17.86,20.94-26.9,97.09-128.1,186.91-262.43,269.43-400.58,19.92,24.29,15.95,62.08,10.91,91,20.39-49.59,38.48-100.1,55.16-150.9,37-112.79,66.16-228.88,80.82-346.48,9.38-75.26,13.13-151.75,9.7-227.57-3.79-83.89-12.54-168-40.31-248.2v0a514.73,514.73,0,0,0-30.51-65.38c-4.81.72-9.73,1.18-14.46,2-12.63,2.1-25.32,4.5-38,6.29h0c-4,1.14-8,2.12-12,3s-7.82,1.7-11.77,2.5c-4.75,1-9.64,1.88-14,2.88h0l-0.27.17c-5.07,1.3-10.18,2.69-15.18,4-10.87,2.83-21.74,5.76-32.6,8.69a0.59,0.59,0,0,1-.18.05l-0.13.17q-11.44,15.65-22.21,31.83a0.3,0.3,0,0,0-.05.06h0v0a1072,1072,0,0,0-83.6,151.76c-35.59,79.74-61.88,164.42-83.74,249.27-24.19,93.92-43.93,189.47-65,284.43h0q-3.71,16.47-7.46,32.93v0.06c-12.86,59.42-28.22,120.07-44.74,179.21-16.87,60.39-36.16,120.37-56.91,179.74h0l-0.06.19c-19.64,55.23-63.2,164-63.2,164s40.77-106.59,59.17-160.63l0,0c17.17-51.3,33.2-103.08,47.42-155.11,17.77-65.05,33.1-131.08,47.35-197.18a0.05,0.05,0,0,1,0,0c2.21-10.35,4.28-20.89,6.55-31.11,0-.11.05-0.22,0.07-0.33q3.66-17.57,7.21-35.16c33.63-166.74,62.07-337.32,122.39-495.82,13.29-34.92,28.52-69.33,45.11-103.08l0-.19h0s0,0,0,0a0.37,0.37,0,0,0,0,.13,0.38,0.38,0,0,0,0,.08l0,0h0c13.56-27.1,28.41-53.31,44.19-79.18-2.88,1.07-5.76,2.14-8.61,3.23l-0.06,0,0-.05c-31.63,12.58-62.58,26.66-91.69,43.48-31.73,18.34-62,39.9-90.67,63.21-3.29,2.68-6.58,5.43-9.78,8.19-20.67,17.81-40.67,36.66-59.79,56.13-6.41,6.53-12.73,13.22-19,19.92-2.08,2.23-4.15,4.47-6.2,6.7-11,12-21.9,24.29-32.55,36.59-30.9,35.68-60.85,72.62-91.33,108.89h0q-3.77,4.47-7.54,8.88c-2.51,2.93-5.09,5.88-7.59,8.78-5,5.81-10,11.54-15.1,17.19h0l0.14,0a0.39,0.39,0,0,0,0,.07c-6,38.57-10.45,78.11-14.23,117.21-9.15,94.54-14,189.93-18,285,0,0.8-.07,1.59-0.1,2.39,0,0,0,.07,0,0.12q-2.11,51.23-4,102.47a0,0,0,0,1,0,0l0,0q18.82-31.53,36.21-63.82c1.32-2.47,2.63-5,3.94-7.47l2-3.77c1.3-2.52,2.61-5.06,3.91-7.6q1-1.9,2-3.83,1.94-3.84,3.88-7.73,2.91-5.82,5.79-11.77c1.28-2.64,2.58-5.13,3.85-7.79,0.64-1.34,1.26-2.79,1.93-3.86h0c2.23-1.25,4.57-1.49,6.88-2.18-0.05.12-.12,0.14-0.18,0.24-21.77,42.21-44.9,84.19-70.38,124.62a0.3,0.3,0,0,0-.05.1h0a0.24,0.24,0,0,1,0,0c-0.32,8.46-.61,16.95-0.94,25.46q26.11-12.38,52.29-24.6c1.17,18.5,2.28,37,3.2,55.53,1.49,30,2.51,60.06,3.21,90.11,0,0,0,0,0,0,1,54.2.73,108.53-1.49,162.51-1.67,40.76-4.3,81.95-8.06,122.48C1100.55,3859.41,1098.34,3878.63,1096.74,3897.81Z" fill="#1a1a1a"/><path d="M956.89,3000.52c13-10.33,25.53-21.35,37.36-32.86,38-37,71.54-78.48,104.37-120.37h0s0.06,0.06.08,0.05l0,0.07c3.65-4.69,7.31-9.4,11-14.18q4.44-5.8,8.89-11.65l4.79-6.3q6.86-9,13.78-18.11t13.94-18.21l5.71-7.42q9-11.63,18.13-23.28,7.24-9.2,14.62-18.38,3.12-3.88,6.26-7.75c21.76-26.67,44.43-52.73,68.19-77.69,1.37-1.44,2.76-2.85,4.12-4.25s2.7-2.77,4.07-4.15l4.28-4.31c1.4-1.41,2.82-2.8,4.23-4.19l4.25-4.17c1.42-1.39,2.86-2.77,4.29-4.13s2.88-2.75,4.33-4.11L1298,2611c2.91-2.72,5.88-5.42,8.83-8.07,1.48-1.33,3-2.66,4.47-4s3-2.65,4.51-3.95,3-2.63,4.55-3.93l4.59-3.89c1.34-1.13,2.7-2.27,4.05-3.36l0.81-.67,0.48-.39,0.29-.24,0.81-.67c0.95-.77,1.9-1.56,2.86-2.33,1.57-1.26,3.14-2.53,4.72-3.77s3.17-2.5,4.77-3.74l2.31-1.78,0.57-.44c1.21-.93,2.46-1.86,3.66-2.79l1.39-1,2.66-2c0.89-.66,1.78-1.31,2.67-2l0.08,0c0.8-.59,1.62-1.14,2.44-1.73,0,0,.06.06,0.08,0,1-.7,1.92-1.84,3-1.94h0c0-.12,0-0.27.05-0.4a0.92,0.92,0,0,1,0-.2,0.5,0.5,0,0,1,.4-0.37h0a0.28,0.28,0,0,0,.12,0h0.05c0.93-.09,1.71-1.28,2.59-1.89v0.13c32.83-16.72,64.62-34.45,95.23-55h0a6.8,6.8,0,0,0,1.31-.56,1.41,1.41,0,0,0,.19-0.05l0.2-.08c0.5-.25,1-0.48,1.52-0.71l2-.92,3.32-1.48,0.46-.21c0.1-.05.21-0.07,0.32-0.12,1-.44,2.06-0.88,3.09-1.33,1.92-.85,3.87-1.61,5.82-2.43h0l0.37-.16a1.15,1.15,0,0,1,.36,0h0a53.38,53.38,0,0,1,5.9-2.67c2.06-.85,4.11-1.88,6.19-2.72l0.28-.12,0.16-.06q6.2-2.51,12.51-4.92c8.63-3.29,17.44-6.45,26.36-9.49,1.87-.64,3.77-1.32,5.63-1.88a2.29,2.29,0,0,1,.26-0.08l0.83-.28,0.1,0,0.2-.05,1.33-.44c1.73-.57,3.47-1.12,5.22-1.67l6.87-2.15c4.59-1.42,9.23-2.78,13.91-4.14,9-2.46,13.51-3.69,22.68-6.15,0.1,0,.22,0,0.33,0,7-1.83,10.47-2.74,17.54-4.57h0c3.37-2.14,6.74-4.27,10.14-6.4h0c3.36-2.13,6.72-4.68,10.06-6.92a1.8,1.8,0,0,1,.4-0.46h0s0,0,0,0a0.81,0.81,0,0,1,.4-0.06h0c10.46-7.33,21.56-13.93,32.61-20.32,0,0,0-.21,0-0.21l3.61-2.13q-4-4.71-8.24-9.12h0l-0.08-.09c-1.33-1.42-2.72-2.81-4.1-4.19l-0.08-.08q-1.77-1.78-3.57-3.49v0l0,0q-8.94-8.59-18.39-16a253.64,253.64,0,0,0-22.24-15.62q-7.88-4.93-15.89-9.19l-0.22-.11c-4.27-2.3-8.66-4.44-13-6.45-3.74-1.73-7.48-3.38-11.23-4.91s-7.58-3-11.36-4.36c-3.27-1.17-6.54-2.29-9.78-3.31-8.17-2.59-16.27-4.57-24.31-6.59h0c-1.6-.78-3.09-0.7-4.62-1-54.38-10.48-109.08-7.41-161.87,7.33-29.74,8.31-58.17,20.88-85.82,35.88,0,0,0,0,0,0l0,0c-6.11,3.47-12.2,7-18,10.78-36.13,23.21-69.27,51.08-99.85,81.33-8.34,8.25-16.47,16.92-24.62,25.45h0a0.25,0.25,0,0,1-.21,0h0l-0.14.16c-1.64,1.94-3.3,3.79-4.92,5.6-31.53,35.09-60.25,72.84-86.89,112-7,10.22-13.73,20.68-20,31.33,11.29-8.72,32.56-16.51,40.51,1.6l0,0.07,0,0.08c-0.25.62-.5,1.25-0.74,1.88a1522.53,1522.53,0,0,0-48.69,148.63C986.37,2860.76,971.12,2930.65,956.89,3000.52Zm579.44-495.06,0.15,0h0a0.07,0.07,0,0,1,0,0l-0.08,0Zm-14.64,13s0,0,0,0h0ZM923.77,3571.09c12.23,2.73,25.82,2.16,38.14,1.95,42.84-.76,85.83-4.66,128.09-13,7.22-1.42,14.6-2.59,21.87-4.71l0,0c16-3.77,31.8-7.85,47.64-12.14q-1.39,55.83-2.67,111.67c6.66-4.7,13.35-9.87,20-15.18,11.17-9,22.19-18.23,33.12-27.58,0,0,0-.14,0-0.14s0-.21,0-0.21h0l0.24-.2c1.24-1.09,2.5-2,3.76-3.1a0.16,0.16,0,0,1,.06,0l0-.24h0l0,0.22s0,0.11,0,.18a0.2,0.2,0,0,0,0,0c84.19-73.1,160.82-155.14,235.79-237.49,12.42,26.74,3.41,59.44-5.78,85.76,25.15-39.65,48.79-80.25,71.8-121.07,53.2-94.34,102.25-191.72,140.75-292.69,25.46-66.77,46.55-135.77,61.22-205.73,14.52-69.24,25.33-139.22,23.28-210.54a0,0,0,0,1,0,0,0.56,0.56,0,0,0,.09-0.14c-3.27-54.64-14.66-105.69-38.85-155l-0.11-.2h0a1.85,1.85,0,0,1,0,.22h0l-1,.06h-0.07c-0.26,0-.52,0-0.77,0l-0.43,0h0c-1,.1-2,0.11-2.88.17h0c-0.11.07-.23,0-0.35,0.12s0-.08-0.06-0.07a0.82,0.82,0,0,1-.4,0h0l0,0.21,0,0.23-0.06.06c-0.13.07-.26,0.18-0.4,0.23a2.27,2.27,0,0,1-.44.28h0c-0.31,0-.63,0-0.94.09a5.54,5.54,0,0,1-.8,0c-0.41,0-.82.07-1.24,0.09l-1.69.1c-0.06,0-.11.06-0.17,0.07-0.25.05-.5,0.13-0.75,0.18h0c-0.72.14-1.45,0.3-2.18,0.42-1.57.28-3.17,0.51-4.74,0.78l-3.85.66c-1.29.22-2.59,0.42-3.85,0.64l-0.65.11-0.38.06c-1.21.18-2.46,0.38-3.68,0.57l-2.05.31-2.06.3-2.35.34h0l-3,.82-2.91.75-3.1.76-3,.7-1.08.24-1.06.26-0.19.06a3.71,3.71,0,0,1-.62.19h0a2.09,2.09,0,0,0-.34,0c-0.68.15-1.37,0.25-2.06,0.39l-0.59.12-1,.2-5,1-3.42.7-5.34,1.08q-2.71.55-5.41,1.13l0,0.17,0,0.14q-7.6,2-15.09,3.93a0.68,0.68,0,0,1-.2.17h0c-18.87,12.79-37,26.34-54.82,40.55,0,0-.06-0.06-0.07,0s0,0,0,0h0a926.63,926.63,0,0,0-69.28,63.2h0a0.07,0.07,0,0,0,0,0,0.93,0.93,0,0,1-.08-0.13s0,0,0,0h0l0,0.19c-16.87,17.78-33.2,36.17-48.34,55.17-48.69,61.07-88.54,129.57-122.88,200C1251,2980.47,1202.68,3120,1140.18,3252c-4.74,10-9.58,19.86-14.42,29.55,0,0,0,.06-0.07.11-0.34.68-.68,1.33-1,2a0.21,0.21,0,0,1,0,.07l-0.09.18-0.07.13-0.1.2c-9.85,18.89-19.78,38.21-30.14,57.09l-0.76,1.36-1.51,2.68c-0.72,1.27-1.43,2.56-2.15,3.83l-2.2,3.88c-1.47,2.58-2.94,5.16-4.41,7.7q-14.1,24.24-29.07,48s0,0.06,0,.06v0h0l0,0c-19.45,30-62.13,86.86-62.13,86.86s42.91-60.34,62.36-92c0,0,0,0,0,0l0,0q18.82-31.53,36.21-63.82c1.32-2.47,2.63-5,3.94-7.47l2-3.77c1.3-2.52,2.61-5.06,3.91-7.6q1-1.9,2-3.83,1.94-3.84,3.88-7.73,2.91-5.82,5.79-11.77,1.92-4,3.83-8c0.58-1.21,1.15-2.44,1.73-3.63l0.18-.38h0c0.28-.59.49-1.7,0.83-1.74h0c2.18-3.23,4.1-8.49,6.11-12.8,32.12-68.84,60.33-139.78,87.85-210.75,54.37-140.24,107.3-284.83,192.68-408.15,33.59-48.51,73-93,116.41-133.73h0l0,0-4.58,1.79-3.25,1.3-2.69,1.1-1.06.43c-2.2.89-4.39,1.79-6.56,2.69-2,.82-3.95,1.65-5.91,2.5s-4.16,1.8-6.23,2.71a0.82,0.82,0,0,0-.2.08c-1.45.64-2.92,1.31-4.36,1.93l-0.24.11-0.39.18c-1.41.62-2.85,1.32-4.25,1.94l-1.19.54-0.35.17-0.38.18-1.61.74c-1.28.59-2.57,1.21-3.84,1.8l-1,.5-1.83.88-3.12,1.5q-2.21,1.07-4.38,2.15l-0.08,0-1.19.59h0l-0.3.15-2.53,1.27-2.76,1.39h0l-1.41.73c-0.31.15-.61,0.31-0.92,0.47l-0.49.26c-1.41.75-2.89,1.54-4.31,2.24-0.21.1-.43,0.21-0.64,0.34l-0.13.08-1.4.73-0.48.25-0.25.15,0,0-0.1.05-2,1.08-2,1.09-2.31,1.29c-3.62,2-7.23,4-10.78,6.1-1.72,1-3.43,2.08-5.13,3.08a14.64,14.64,0,0,0-3.24,2.07h0a5.75,5.75,0,0,0-2.09,1.12c-0.09.06-.21,0-0.3,0-1,.56-1.9,1.15-2.85,1.73-1.49.91-3,1.83-4.48,2.76l-2.41,1.52-2.45,1.55-1.45.93c-1.59,1-3.18,2-4.76,3.08l-1.81,1.18-0.73.48-3.84,2.55-0.52.35-3.83,2.58-0.95.65-1.5,1c-3.48,2.4-7,4.83-10.42,7.31l-4.64,3.35-2.47,1.81-2.77,2-1.66,1.24-2.93,2.2-3,2.31-0.08.05-4.39,3.4-4.2,3.29-2.26,1.79-0.57.45-2.34,1.87-2,1.59c-1.54,1.26-3.08,2.53-4.6,3.77l-1.28,1-3.63,3c-1.63,1.37-3.27,2.74-4.87,4.12-20.67,17.78-40.67,36.66-59.79,56.13-6.41,6.53-12.74,13.23-19,19.92-2.08,2.23-4.15,4.47-6.2,6.7-11,12-21.85,24.28-32.55,36.59-4,4.58-7.93,9.21-11.86,13.81-2.94,3.45-5.89,6.91-8.79,10.36l-2.91,3.46q-2.9,3.44-5.79,6.89t-5.76,6.88l-4.65,5.57-1.56,1.88-5.22,6.28c-4.15,5-8.3,10-12.37,14.92l-1.76,2.13-7.71,9.29-5.64,6.78-1.79,2.16-3.63,4.33-5.31,6.34-1.5,1.78-5.09,6.05s0,0,0,0c-6.4,7.57-12.78,15.07-19.15,22.41q-5,5.75-10,11.39l-0.06.06-0.88,1,0,0c-17.5,19.47-35.39,38.79-54.14,56.68-16.18,15.44-33.3,30.5-51.55,43.72-1.8,1.3-3.64,2.66-5.45,3.84a2.58,2.58,0,0,1-.15.32h0c-8.59,6-17.24,11.86-26,17.36q-12.95,65.25-25.26,130.61,28.44,3.22,56.91,6.27-1.23,21.58-2.63,43.15c-0.15,2.3-.32,4.62-0.47,6.91q-0.31,4.47-.63,8.93c-5.23,70.56-12.76,141.32-24.85,210.79-5.84,33.55-12.7,67.51-20.93,100.38C931.74,3540.57,927.47,3555.82,923.77,3571.09ZM1254.22,2681l0.17-.17,0.48-.48s0,0,0,0l0,0A6,6,0,0,1,1254.22,2681ZM954.41,3012.85c8.93-6.08,17.76-12.53,26.48-19.52h0c0.32-.24.64-0.47,1-0.72,12.7-10,24.87-20.7,36.56-31.83,24.8-23.6,47.9-49.48,70.27-75.83l0.58-.7,0,0c1.35-1.6,2.69-3.21,4-4.83h0.06a0.05,0.05,0,0,1,0,0,0,0,0,0,0,0,0v0l0,0,0,0,0.52-.62,0.54-.65,1.71-2.07c1-1.17,1.93-2.36,2.9-3.55h0l2.9-3.59,2.9-3.61,2.42-3,1.45-1.8,1-1.21,2.43-3c1.28-1.58,2.57-3.16,3.83-4.74l0.54-.67c1.08-1.35,2.19-2.69,3.29-4l2.08-2.5c0.81-1,1.63-1.95,2.44-2.92h0a0.41,0.41,0,0,0,.06-0.21,0.25,0.25,0,0,1,0-.09c0.67-.84,1.36-1.68,2-2.53l0.36-.45,0.68-.86c2.72-3.44,5.43-7,8.15-10.43q7-8.88,14-17.9l14.15-18.07c4.74-6.05,9.51-12.14,14.32-18.2,12.34-15.57,24.81-31.11,37.43-46.44,1.59-1.93,3.19-3.93,4.8-5.86,3.21-3.85,6.44-7.65,9.68-11.66h0c1.62-2,3.28-3.72,4.91-5.63,0.81-.95,1.64-1.78,2.46-2.73,2.47-2.86,4.93-5.73,7.43-8.58,1.65-1.89,3.28-3.77,4.94-5.66l0,0h0c1.37-1.58,2.84-3.15,4.25-4.73l-2.94,3c-1.25,1.28-2.48,2.55-3.72,3.84l-3.7,3.87-1.84,1.94-1.83,1.95,0,0q-12.38,13.09-24.33,26.62-4,4.54-8,9.11a0,0,0,0,0,0,0q-4,4.56-7.92,9.14c-2.62,3-5.24,6.12-7.84,9.17s-5.19,6.13-7.76,9.21q-7.39,8.81-14.68,17.66l-5.45,6.62q-18.77,22.94-37.37,46.09s0,0,0,0q-15.68,19.38-31.47,38.66l0,0h0c-26.45,31.77-53.5,63.44-82.92,91.87a529.73,529.73,0,0,1-56.74,47.76c0,0.18-.07.36-0.11,0.53C955,3009.75,954.72,3011.28,954.41,3012.85Z" fill="#1a1a1a"/><path d="M752.12,3082.53c14.74,9.46,30.1,17.59,45.42,25.93,47.39,25.79,95.63,51.32,144.87,73.12,13.16,5.83,26.61,11.45,40,16.88,7.44,3,14.91,5.92,22.34,8.75,3.36,1.28,6.74,2.54,10.11,3.79q-8.63,45.92-16.94,91.9c7.15,0.27,14.29.29,21.39-.07,13-.66,26.2-2.38,39.12-4.3h0a210.55,210.55,0,0,0,23.62-4.16h0c11.87-2.44,23.94-5.27,35.47-8.3l0.22-.05h0a7.87,7.87,0,0,1,.84-0.42c1.88-.81,3.85-0.85,5.77-1.39l0,0,0.05,0s0-.08,0-0.08,0.12-.08.18-0.1c6.2-1.8,12.45-4.11,18.8-5.77h0a50.69,50.69,0,0,1,7.24-2.62s0-.15.06-0.16c51.14-18.08,100-40.95,148.06-66,5.54,25.52-5.68,51.41-18.91,72.64q12.35-10.64,24.8-22.12h0q5.47-5,11-10.19l0,0q13.53-12.68,26.73-25.74s0-.32.08-0.35c4.06-4,8.13-8,12.24-12.08h0c2.16-2,4.31-4.28,6.47-6.44,65.58-65.33,128.19-134.07,184.26-207.22,39.59-51.64,76.34-106.12,108.3-162.84,37.12-65.89,70.93-133.4,87.23-208.11,0,0,.18,0,0.19-0.06a388.18,388.18,0,0,0,5.71-91.86v0a392,392,0,0,0-14.25-67.67c-5.48.72-11,1.5-16.36,2.3-2.39.36-4.76,0.77-7.15,1.07s-4.8,1-7.23,1.11l0.37,0,0-.21c-1.89.27-3.62,0.42-5.23,0.51h0a8.31,8.31,0,0,1-4.67,1.23h-0.07l-4.79.28h0c-1.47,1-3.13.77-4.7,1-6.33,1.1-12.59,2.37-18.84,3.22h0c-4,1.14-8,2.12-12,3-2,.46-4,0.88-6,1.3s-3.85.8-5.79,1.2c-3,.6-6,1.18-8.92,1.78-1.74.36-3.45,0.72-5.09,1.1h0l-0.27.17-0.1,0c-5,1.29-10.12,2.68-15.08,4-10.87,2.83-21.74,5.76-32.6,8.69a0.54,0.54,0,0,1-.18.05l-0.09.15,0,0a0.52,0.52,0,0,1-.17.14h0c-15.85,4.93-31.48,10.15-47.1,15.76,0,0-.06-0.16-0.09-0.16a1,1,0,0,0-.05-0.1h0c-2.87,1.14-5.74,2.23-8.59,3.32a0.39,0.39,0,0,1,0,.11h0c-31.59,12.61-62.53,26.67-91.63,43.47a688.92,688.92,0,0,0-74.73,50.45c-5.39,4.14-10.7,8.45-15.94,12.76-3.29,2.71-6.58,5.44-9.78,8.19-20.67,17.77-40.67,36.66-59.79,56.14-6.41,6.53-12.73,13.23-19,19.92-2.08,2.23-4.15,4.47-6.2,6.7-11,12-21.85,24.28-32.55,36.59-4,4.58-7.93,9.21-11.86,13.81q-8.83,10.36-17.49,20.71c-20.69,24.74-41.23,49.67-62,74.38h0q-3.77,4.47-7.54,8.88t-7.52,8.77c-1.37,1.58-2.73,3.19-4.09,4.79-3.32,3.9-6.64,7.8-10,11.39l-0.06.06c-0.29.32-.59,0.63-0.89,0.94h0c-17.56,19.4-35.43,38.74-54.16,56.65-16.18,15.46-33.28,30.59-51.54,43.83-1.8,1.3-3.64,2.66-5.45,3.84a2.58,2.58,0,0,1-.15.32h0c-8.59,6-17.28,12-26,17.36C919.49,3039.28,844.94,3066,844.94,3066s75.47-30.27,109.49-53c8.9-6,17.74-12.65,26.48-19.54,0,0,0-.08,0-0.08h0a0.12,0.12,0,0,0,0,0l1-.76c12.56-10.23,24.89-20.83,36.55-31.87,24.79-23.49,48-49.47,70.28-75.8,1.55-1.83,3.11-3.49,4.64-5.54h0c3.83-5.13,7.74-9.47,11.6-14.28,6.45-8,12.92-16.16,19.45-23.9h0a0.41,0.41,0,0,0,.06-0.21,0.25,0.25,0,0,1,0-.09c0.67-.84,1.36-1.68,2-2.53l0.36-.45c0.75-1,1.53-1.93,2.29-2.9l1.94-2.46,4.6-5.85c4.66-5.92,9.32-11.93,14-17.93s9.41-12,14.15-18.08l7.13-9.1q3.58-4.56,7.18-9.11c12.34-15.56,24.82-31.1,37.43-46.42,1.59-1.93,3.2-3.86,4.8-5.78q4.82-5.78,9.7-11.54,7.32-8.63,14.81-17.2l5-5.66,0,0c1.68-1.89,3.35-3.79,5-5.67v0a0.05,0.05,0,0,1,0,0l0,0c43.32-47.84,89.71-92.09,142.43-129,0.91-.64,1.84-1.23,2.76-1.85h0s0,0,0,0a1.23,1.23,0,0,0,.07.21l1.31-.88a739.66,739.66,0,0,1,95-52.59h0c0.89-.42,1.8-0.81,2.71-1.22h0c4.17-2.2,8.44-4,12.72-5.82,21.19-8.88,42.88-17,64.7-24.14,1.31-.43,2.65-0.85,4-1.27,9-2.82,18.09-5.55,27.38-8.12l0.11-.07,0.1-.06c1.46-.4,2.92-0.93,4.39-1.31,12.49-3.24,25.16-6.1,37.61-9.66h0c3.68-1.2,7.48-1.4,11.25-2.2,0.08,0,.16,0,0.24,0,10.47-2.25,21.15-4.27,32-6.21q12-2.14,24.32-4.07c-3.66-7.47-7.62-14.62-11.87-21.57l0,0c-2.05-3.37-4.16-6.63-6.36-9.87h0q-3.21-4.77-6.6-9.33v0c-5.05-6.84-10.38-13.41-15.9-19.68q-3.7-4.2-7.51-8.24a323.87,323.87,0,0,0-29-27.15c-4.17-3.46-8.41-6.87-12.67-10.12a393.68,393.68,0,0,0-40.05-26.77l-2.63-1.53h0c-1.81-1-3.64-2.08-5.46-3.1l0,0c-6.56-3.65-13.13-7.1-19.66-10.33-2.79-1.38-5.59-2.76-8.37-4A521.7,521.7,0,0,0,1417,2239.12c-79.72-12.63-159.49-3.14-235.78,23.49a682.06,682.06,0,0,0-66.52,27.52c-3.19,1.51-6.4,3.08-9.54,4.68a780.16,780.16,0,0,0-67.69,38.87c-8.67,5.57-17.31,11.42-25.72,17.81,16.64-2.4,35.84,4.26,40.28,22.58q-27.24,33.41-51.31,69c-2.6,3.84-5.17,7.75-7.73,11.67-5.87,9-11.7,18.14-17.36,27.4-17.48,28.59-34.22,57.84-50.27,87.23-7.43,13.61-14.75,27.38-22.05,41.11l-0.06.1c-0.07.14-.15,0.19-0.22,0.33-0.93,1.72-1.87,3.3-2.75,5.22h0q-4.75,9-9.48,18c-19.4,37-38.64,74.19-58.27,111.12q30.27,18.38,60.25,37.2c-3.79,13.35-7.63,26.75-11.67,40-17.22,56.34-37.64,112.76-65,164.49a544.22,544.22,0,0,1-41.72,67.1C767.34,3063.58,759.09,3072.69,752.12,3082.53Z" fill="#1a1a1a"/><path d="M1350,1866.89c-14.29-14-28.71-27.91-43.29-41.46a2097.47,2097.47,0,0,0-189.3-155.91q-6.24-4.55-12.46-9c-72.32-51.63-147.39-99.74-220.79-150.06-38.9,15.79-76.72,33.93-113.7,53.43-54.3,28.63-108,59.39-162,89.07q-16.92,9.29-33.93,18.42,11.07,5.33,22,10.44,8.24,3.86,16.41,7.6,11.59,5.3,23,10.38h0q4.67,7.88,9.38,15.7l-3.15-1.48c-12.52-6-25.06-12-37.46-18.2-13-6.46-26-13.1-39-19.75q-15.6,8.34-31.28,16.51-46.43,24.1-93.74,46.62c58.3,18.93,116.93,36.59,176.41,51.42q4.78,5.57,9.56,11.09c-64.37-17.6-127.74-38.28-190.73-60.28q-12.09,5.68-24.47,11.31,46.18,39,90.75,79.68c-14,11.5-28.37,22.7-42.88,33.29A869.27,869.27,0,0,1,384.14,1915c-21.12,12.27-43.13,23.57-65.34,34.26a991,991,0,0,1-94.11,38A1167.62,1167.62,0,0,1,78,2026.51c-25.68,5.17-52.05,9.17-78,14.43,30.66,17.43,62.63,32.59,93.74,48.85,99.77,52.12,198.73,108.1,294.92,167.13Q457.24,2299,524.28,2344q-38.16,35.07-77.68,68.53,22.38,9.49,44.88,18.68c142.58,58.25,287.61,117.63,438.69,150.68,3.21,0.7,6.45,1.5,9.65,2.18-2.73,21.17-10.05,36.33-27.82,49.1l-0.07,0a130.44,130.44,0,0,1-12.81,7.35c3.46-.09,6.83-0.5,10.36-0.41h0a761.2,761.2,0,0,0,97.43-12.93,887.67,887.67,0,0,0,92.8-24.25l0-.15a961.39,961.39,0,0,0,107.7-43.18h0c12.83-6,25.64-12.22,38.11-18.74,28.21-14.75,56-31.18,83.28-48h0a0.48,0.48,0,0,1,.25,0h0a0.63,0.63,0,0,1,.29,0h0c27.65-18.25,55.06-36.88,81.48-56.67,7.14-5.35,14.45-11,21.87-16.73a0.07,0.07,0,0,1,0,0c10.6-8.13,21-16.46,31.46-24.82a0.11,0.11,0,0,0,0,0c23-18.7,45.39-37.92,66.61-58.69v0a646.34,646.34,0,0,0,47.38-51.81,0.81,0.81,0,0,0,.07-0.1,452.17,452.17,0,0,0,28.82-40l0-.07q-6.08-10.1-12.21-20.07a0.2,0.2,0,0,0-.07-0.09q-2.13-3.49-4.27-7-4.27-6.93-8.54-13.83l-4.27-6.86c-1.19-1.9-2.36-3.8-3.56-5.69l-1.32-2.14-3.67-5.85q-4.28-6.79-8.54-13.57l-0.36,0c-0.06-.1-0.08-0.21-0.13-0.3-14.75-23.52-29.26-47.08-45.34-69.72h0a2.61,2.61,0,0,0-.51-0.47,0.27,0.27,0,0,0,0-.14,1.3,1.3,0,0,1-.42-0.59l-0.07-.6c-9.07-14.47-18.81-28.53-28.43-42.61-5.9-8.65-11.78-17.27-17.64-25.79-3.67-.8-7.33-1.59-11-2.34-22.51-4.66-45.2-8.87-68-12.38-25.48-3.68-50.93-6.61-76.6-8.63q-17-1.19-33.52-1.64-14.29-.38-28.18-0.23a874.28,874.28,0,0,0-189.26,25.14c-65,15.89-129.5,36.9-194.57,54.22-5.89,1.56-11.82,3.09-17.77,4.55C790.51,2101.63,731,2112.1,671.38,2116c-48.69,3.14-98.18,2-147.34-.76-15.78-1-31.59-2.19-47.28-3.56-79.84-7-239.12-31.42-239.12-31.42s154.07,21.09,231.21,26.49c16,1.12,32.05,2,48.1,2.73,40.65,1.5,81.51,1.87,121.76-.66,65.33-4.1,130.37-15.53,193.88-32.66,7.08-1.91,14.13-3.94,21.12-6q2.7-.78,5.4-1.59c114.81-34.66,226.23-80.17,346.18-95.5,14-1.48,27.91-2.74,41.84-3.57,3.8-.23,7.66-0.38,11.53-0.53,32-.87,63.74,0,95.68,2.33h0l5.51,0.47c25,2.37,49.86,5.5,74.7,9.27Q1391.5,1924.53,1350,1866.89Z" fill="#1a1a1a"/><path d="M322.9,1776.31q33.16,46.53,66.54,92.91-61.49,18.94-123.46,36.24c13.49,11.53,27.22,22.81,40.94,34l11.89,9.71q27.38,22.31,54.87,44.56,4,3.2,7.93,6.41c45.08,36.24,90.34,72.78,135.35,109.26l7.09,5.75q124.16,100.67,247,202.94c-9.27,27.11-41.32,26.46-64.44,22.09,41.49,22.45,83.75,43.53,126.28,63.67,28.16,13.33,56.8,26.32,85.53,38.07,53.51,21.87,108.77,39.62,165.73,50.76,1.32,0.26,2.65.5,4,.73a682.91,682.91,0,0,0,119.83,10.3c17.64-.06,35.51-1.18,53.1-2.73,22.58-2,45.32-4.8,67.75-8.29,92.76-14.42,182.32-51.69,243.29-122.1a348.14,348.14,0,0,0,34.33-48.07c0.6-1,1.18-2,1.76-3.07,0.75-1.31,1.51-2.62,2.23-4q-16-15.82-32.06-31.54-8.9-8.69-17.74-17.21l0,0q-17-16.3-34-32.48a0.29,0.29,0,0,0-.09-0.08c-27.91-26.29-56.14-52.36-84.77-77.74q-48.23-42.77-98.57-83.47h0c-24.31-19.34-49-38.29-74.08-56.46-6.19-4.48-12.4-8.86-18.53-13.12-14.9-10.33-30-20.59-45.23-30.35a1415.59,1415.59,0,0,0-154.3-86c-131.93-62.79-272.69-109.8-405.55-171.48l-3.15-1.48c-12.52-6-25.06-12-37.46-18.2-13-6.46-26.06-13.08-39-19.75-50.38-26-100.32-53.56-149.52-81.83-56-32.17-166.2-100-166.2-100S364,1561.08,421.74,1592.6C472,1620,523,1646.49,574.61,1671.4q11.05,5.34,22,10.44,8.24,3.86,16.41,7.6,11.59,5.3,23,10.38h0c67.85,29.91,136.86,56.92,206.59,81.85,140.5,50.23,279.42,101.17,406,180.85,3.31,2.08,6.65,4.23,10,6.4,18,11.77,36,23.91,53.56,36.32,49.09,34.73,96.61,72.33,143.1,110.87-8.84-14-17.73-28.07-26.7-42-13-20.19-26.36-40.31-39.81-60.27q-10-14.83-20.19-29.53-4.39-6.33-8.77-12.61c-15.26-21.75-30.78-43.44-46.58-64.74-59.82-80.65-124.4-158.25-191.78-233l-4.05-4.47c-68.42-75.24-139-148.67-206.8-224.5h0c-42.49-47.91-83.93-97-122.1-148-27-36.16-53.77-74-77.12-112l-0.23-.38q-73.82,2.28-147.62,5.07,19,68.26,38.7,136.29c-16.41,5.79-33,11.24-49.64,16.15-2.95.87-5.92,1.76-8.9,2.62a1.35,1.35,0,0,0-.25.07c-27.43,7.64-55.16,14.47-82.9,19.93a1137.77,1137.77,0,0,1-166.34,19.65,1484.2,1484.2,0,0,1-148.91-.84c-25.1-1.38-50.5-3.94-75.84-4.66,13.24,28.92,29.84,55.75,46,83,54.85,92.4,114.4,182.34,176.2,270.33Q307.23,1754.34,322.9,1776.31Z" fill="#1a1a1a"/><path d="M440.93,1317.38c6.21,15.95,12.83,31.75,19.69,47.41,0.54,1.25,1.09,2.49,1.63,3.73,21.45,48.55,44.45,96.53,68.8,143.56,22.72,43.86,46.76,87.3,71.38,130.28,2,3.54,4.08,7.09,6.11,10.61l2.39,4.12q12.48,21.41,25.11,42.73h0q4.67,7.88,9.38,15.7,64.77,107.61,133.62,212.66c-17,24.25-51.64,6.37-70.36-5,29,30.89,58.65,61.13,88.59,91.05q8.42,8.42,16.83,16.76c2.93,2.92,5.86,5.86,8.79,8.77q15.36,15.23,30.8,30.38,6.48,6.34,13,12.61c63.88,61.7,130.08,121.63,202.45,172.77l1.67,1.17c10.3,7.27,20.87,14.38,31.5,21.14,45,28.63,92.31,53.38,142,72.56,7.33,2.83,15,5.62,22.7,8.38,6.48,2.31,13.12,4.63,19.82,6.82a677.48,677.48,0,0,0,75.65,20.46c11.64,2.35,23.76,3.65,35.59,5.81h0a516.25,516.25,0,0,0,66.15,2.67h0.14c37.39-1.76,74.17-9.73,107.75-23.88,22-9.27,43.08-21.72,62.59-35.92,6-4.38,12-9.39,17.92-14.5a6.26,6.26,0,0,1-.88-1.63l0-.18h0c-2.78-4.53-5.57-9.56-8.44-14.37l0-.06a7.25,7.25,0,0,0-1.17-1.83s-0.12,0-.14-0.06q-7.3-12.43-14.61-24.69-5-8.35-9.94-16.65-4.49-7.49-9-14.9a0.26,0.26,0,0,0-.07-0.07c-0.38-.62-0.75-1.25-1.14-1.87a0.26,0.26,0,0,0,0-.06q-6.08-10.1-12.21-20.07a0.2,0.2,0,0,0-.07-0.09q-2.13-3.49-4.27-7-2.91-4.71-5.81-9.41l-2.73-4.42c-1.41-2.28-2.85-4.57-4.27-6.86l-3.56-5.69-1.32-2.14c-1.21-1.95-2.45-3.9-3.67-5.85q-4.28-6.79-8.54-13.57l-0.36,0c-0.06-.1-0.08-0.21-0.13-0.3-14.75-23.52-29.26-47.08-45.34-69.72h0a2.6,2.6,0,0,0-.51-0.47,0.27,0.27,0,0,0,0-.14,1.3,1.3,0,0,1-.42-0.59l-0.07-.6c-9.07-14.47-18.81-28.53-28.43-42.62-5.9-8.65-11.77-17.28-17.64-25.79q-16.46-23.88-33.19-47.59-7.68-10.86-15.39-21.54-27.39-37.94-55.72-75.23l-0.09-.09c-1.45-1.91-2.92-3.8-4.38-5.7l-0.52-.66q-4.22-5.48-8.43-10.89c-1.68-2.16-3.36-4.34-5-6.49q-3.37-4.32-6.73-8.59-5.68-7.22-11.35-14.34l-0.12-.15c-0.52-.67-1.06-1.34-1.59-2l-1.6-2c-1.8-2.25-3.61-4.52-5.41-6.76-2-2.5-4-5-6-7.47l-0.79-1c-1.95-2.44-3.94-4.87-5.91-7.29l-3.63-4.46-1.2-1.47-3.28-4-5.73-7q-3.26-4-6.52-7.92l-0.15-.17q-3.25-3.94-6.49-7.82t-6.25-7.48l-0.31-.38c-4.33-5.21-8.71-10.39-13-15.51-3.59-4.24-7.21-8.47-10.75-12.64l-3.35-3.91c-8.14-9.47-16.35-19-24.58-28.47l-6.38-7.3q-3.18-3.63-6.36-7.24l-6.34-7.18q-3.16-3.58-6.33-7.13c-1.84-2.07-3.72-4.15-5.52-6.19l-1.45-1.63-0.62-.69c-1.53-1.74-3.09-3.46-4.62-5.18l-0.87-1-0.89-1-4.88-5.43-6.24-6.93-6.23-6.88-6.21-6.83-6.19-6.79c-2.61-2.85-5.21-5.7-7.82-8.52l-5.87-6.38-8-8.67-8.74-9.46-10.93-11.79c-3-3.2-5.93-6.43-8.88-9.57l-1.33-1.43c-10.06-10.86-20.24-21.71-30.36-32.57l-3.49-3.74c-4.63-5-9.3-10-13.92-14.93l-6.94-7.44-2.9-3.12-4-4.31-8.62-9.27q-6-6.47-12-13l-6.84-7.4-13.64-14.81-6.8-7.42c-4.48-4.9-9-9.81-13.43-14.72l-7-7.67q-6.71-7.41-13.39-14.86h0l-5-5.63q-7.52-8.46-15-17l-1.42-1.58-0.12-.12-0.16-.19c-1.49-1.65-3-3.3-4.41-5,0,0,.09-0.06.09-0.08a1.31,1.31,0,0,1-.4-0.71h0c-15.3-17.49-30.53-35.12-45.38-52.91-28-33.59-55.3-68.2-81.11-103.55-5-6.88-10.09-14-15.08-20.92-0.14-.19-0.3-0.37-0.44-0.55h0q-4.31-6.12-8.62-12.32l-2.12-3.06c-0.7-1-1.43-2-2.12-3.07l-0.3-.43-0.15-.23c-0.69-1-1.36-2-2-3s-1.37-2-2-3l-1.93-2.84-1.44-2.13-0.48-.72-0.18-.27c-0.35-.53-0.72-1.09-1.08-1.62-1.13-1.67-2.25-3.36-3.37-5l-0.69-1c-0.22-.33-0.45-0.66-0.66-1l-0.41-.6c-0.85-1.3-1.73-2.62-2.6-3.92-1.2-1.8-2.39-3.62-3.57-5.42l-3-4.62-0.11-.16-0.26-.4-0.29-.46c-1.44-2.18-2.87-4.43-4.3-6.63l-0.9-1.38-0.57-.9c-1.33-2.1-2.7-4.21-4.06-6.33q-2.33-3.63-4.64-7.3l-3.05-4.85-4.26-6.82c-1.61-2.59-3.23-5.21-4.85-7.83l-0.16-.24-0.09-.15c-60.31-98.76-156-309-156-309s100.58,210.72,163.86,309.08l0.13,0.21c16.82,26.24,35,52.43,53.45,77.77,17.14,23.54,35.09,46.74,53.34,69.6a0.07,0.07,0,0,0,0,.06c20.95,25.88,42.39,51.42,64.35,76.32,14.75,16.72,29.81,33.34,45,49.71q8.89,9.57,17.84,19,21.15,22.3,42.56,44.39c27.33,28.17,55,56.15,82.59,84.12,88.64,89.81,176.76,180.48,257.94,276.72,70.73,83.86,137.14,172.06,200.17,262q3.89,5.56,7.79,11.17,14.47,20.82,28.71,41.82c13.72,20.27,27.37,40.69,40.73,61.15q3.06,4.68,6.14,9.42l0,0,4.29,6.6q7.45,11.48,14.89,23.12,18.14,28.37,35.89,57c5.81-7,11.33-14.24,16.48-21.78,1-1.47,2-3,3-4.45,2.9-4.43,5.7-9,8.38-13.54s5.17-9.14,7.59-13.82c3-5.84,5.91-11.8,8.62-17.86,2.11-4.71,4.12-9.5,6-14.32s3.79-9.93,5.54-15c1.19-3.45,2.53-7,3.67-10.44,0.09-.27.07-0.54,0.15-0.8,2.2-7.15,4.43-14.49,6.35-21.88h0a597.47,597.47,0,0,0,15.6-125.46c1.87-113.68-23.16-227.4-56.36-336.47-52.79-173.44-135.23-336.93-220.48-497.12q-86.21-162-176.28-322.19c-10.86-19.4-21.72-38.81-33-57.95,11.16,37.86,21.79,86.36,4.7,124-44.71-47.4-91.26-93.17-139.87-136.21-90.77-80.36-188.49-153.13-286.5-225.09q-1.11,93.5-1.14,187c-13.46-2-27-4.38-40.14-7.11A663.79,663.79,0,0,1,629.7,683.65a764.64,764.64,0,0,1-96.78-64.71c-15.41-12.12-30.4-25.63-46.5-37.4-1.59,43.4,0,86.67,1.3,130.05,4.16,136.19,14.81,272.18,33.55,406.88q11.67,83.92,27.72,167.42V1286c0.67,9.22,3,17.83,4.68,26.62Q497.28,1314.6,440.93,1317.38Z" fill="#1a1a1a"/></svg>